+ filenameToUse=/home/horvathandras/vatic/vatic/public/videouploads/DJI_0696_ragott_szakaszok_Vaskut_20180616_napos_napraforgo_T3.avi
+ filenameNoDot=DJI_0696_ragott_szakaszok_Vaskut_20180616_napos_napraforgo_T3
+ FullUploadPath=/home/horvathandras/vatic/vatic/public/videouploads/DJI_0696_ragott_szakaszok_Vaskut_20180616_napos_napraforgo_T3.avi
+ VideoDataDir=/home/horvathandras/vatic/vatic/videos
+ AvailableObjectTypes='PozitívROI NegatívROI Túrás ~Friss ~1-2Hetes ~Régebbi ~Egyéb1 ~Egyéb2 ~Egyéb3 Rágás ~Friss ~1-2Hetes ~Régebbi ~Egyéb1 ~Egyéb2 ~Egyéb3 Törés ~Friss ~1-2Hetes ~Régebbi ~Egyéb1 ~Egyéb2 ~Egyéb3 Taposás ~Friss ~1-2Hetes ~Régebbi ~Egyéb1 ~Egyéb2 ~Egyéb3 EgészségesNövény Egyéb1 Egyéb2 Egyéb3 Egyéb4 Egyéb5 Bizonytalan Művelőút Gktaposás Vetőhiba Széldöntés Jégkár Belvíz Aszály Erózió EgyszikűGyom KétszikűGyom EgyébNövvédelmiPR'
++ dirname /home/horvathandras/vatic/vatic/vatic_publisher.sh
+ cd /home/horvathandras/vatic/vatic
+ touch /home/horvathandras/vatic/vatic/public/videouploads/DJI_0696_ragott_szakaszok_Vaskut_20180616_napos_napraforgo_T3.avi
+ chmod 744 /home/horvathandras/vatic/vatic/public/videouploads/DJI_0696_ragott_szakaszok_Vaskut_20180616_napos_napraforgo_T3.avi
+ mkdir /home/horvathandras/vatic/vatic/videos/DJI_0696_ragott_szakaszok_Vaskut_20180616_napos_napraforgo_T3
+ turkic extract /home/horvathandras/vatic/vatic/public/videouploads/DJI_0696_ragott_szakaszok_Vaskut_20180616_napos_napraforgo_T3.avi /home/horvathandras/vatic/vatic/videos/DJI_0696_ragott_szakaszok_Vaskut_20180616_napos_napraforgo_T3 --no-resize
ffmpeg version 2.8.14-0ubuntu0.16.04.1 Copyright (c) 2000-2018 the FFmpeg developers
  built with gcc 5.4.0 (Ubuntu 5.4.0-6ubuntu1~16.04.9) 20160609
  configuration: --prefix=/usr --extra-version=0ubuntu0.16.04.1 --build-suffix=-ffmpeg --toolchain=hardened --libdir=/usr/lib/x86_64-linux-gnu --incdir=/usr/include/x86_64-linux-gnu --cc=cc --cxx=g++ --enable-gpl --enable-shared --disable-stripping --disable-decoder=libopenjpeg --disable-decoder=libschroedinger --enable-avresample --enable-avisynth --enable-gnutls --enable-ladspa --enable-libass --enable-libbluray --enable-libbs2b --enable-libcaca --enable-libcdio --enable-libflite --enable-libfontconfig --enable-libfreetype --enable-libfribidi --enable-libgme --enable-libgsm --enable-libmodplug --enable-libmp3lame --enable-libopenjpeg --enable-libopus --enable-libpulse --enable-librtmp --enable-libschroedinger --enable-libshine --enable-libsnappy --enable-libsoxr --enable-libspeex --enable-libssh --enable-libtheora --enable-libtwolame --enable-libvorbis --enable-libvpx --enable-libwavpack --enable-libwebp --enable-libx265 --enable-libxvid --enable-libzvbi --enable-openal --enable-opengl --enable-x11grab --enable-libdc1394 --enable-libiec61883 --enable-libzmq --enable-frei0r --enable-libx264 --enable-libopencv
  libavutil      54. 31.100 / 54. 31.100
  libavcodec     56. 60.100 / 56. 60.100
  libavformat    56. 40.101 / 56. 40.101
  libavdevice    56.  4.100 / 56.  4.100
  libavfilter     5. 40.101 /  5. 40.101
  libavresample   2.  1.  0 /  2.  1.  0
  libswscale      3.  1.101 /  3.  1.101
  libswresample   1.  2.101 /  1.  2.101
  libpostproc    53.  3.100 / 53.  3.100
Input #0, mov,mp4,m4a,3gp,3g2,mj2, from '/home/horvathandras/vatic/vatic/public/videouploads/DJI_0696_ragott_szakaszok_Vaskut_20180616_napos_napraforgo_T3.avi':
  Metadata:
    major_brand     : qt  
    minor_version   : 537986816
    compatible_brands: qt  
    creation_time   : 2018-06-16 08:55:50
    location        : +46.091556+18.980983+30.100
    location-{    : +46.091556+18.980983+30.100
    comment         : DE=None, Mode=P, DSW=0001
  Duration: 00:00:10.18, start: 0.000000, bitrate: 101618 kb/s
    Stream #0:0(eng): Video: h264 (High) (avc1 / 0x31637661), yuv420p(tv, bt709), 4096x2160 [SAR 1:1 DAR 256:135], 101261 kb/s, 50 fps, 50 tbr, 50k tbn, 100 tbc (default)
    Metadata:
      creation_time   : 2018-06-16 08:55:50
      handler_name    : DJI.AVC
      encoder         : AVC encoder
    Stream #0:1(eng): Data: none (priv / 0x76697270), 324 kb/s
    Metadata:
      creation_time   : 2018-06-16 08:55:50
      handler_name    : DJI.Meta
Please use -b:a or -b:v, -b is ambiguous
[swscaler @ 0x18afbe0] deprecated pixel format used, make sure you did set range correctly
Output #0, image2, to '/tmp/pyvision-ffmpeg-969510492/%d.jpg':
  Metadata:
    major_brand     : qt  
    minor_version   : 537986816
    compatible_brands: qt  
    comment         : DE=None, Mode=P, DSW=0001
    location        : +46.091556+18.980983+30.100
    location-{    : +46.091556+18.980983+30.100
    encoder         : Lavf56.40.101
    Stream #0:0(eng): Video: mjpeg, yuvj420p(pc), 4096x2160 [SAR 1:1 DAR 256:135], q=2-31, 10000 kb/s, 50 fps, 50 tbn, 50 tbc (default)
    Metadata:
      creation_time   : 2018-06-16 08:55:50
      handler_name    : DJI.AVC
      encoder         : Lavc56.60.100 mjpeg
Stream mapping:
  Stream #0:0 -> #0:0 (h264 (native) -> mjpeg (native))
Press [q] to stop, [?] for help
frame=    1 fps=0.0 q=16.2 size=N/A time=00:00:00.02 bitrate=N/A    frame=    6 fps=5.5 q=24.8 size=N/A time=00:00:00.12 bitrate=N/A    frame=   11 fps=6.7 q=24.8 size=N/A time=00:00:00.22 bitrate=N/A    frame=   16 fps=7.4 q=24.8 size=N/A time=00:00:00.32 bitrate=N/A    frame=   21 fps=7.8 q=24.8 size=N/A time=00:00:00.42 bitrate=N/A    frame=   26 fps=8.1 q=24.8 size=N/A time=00:00:00.52 bitrate=N/A    frame=   31 fps=8.3 q=24.8 size=N/A time=00:00:00.62 bitrate=N/A    frame=   36 fps=8.4 q=24.8 size=N/A time=00:00:00.72 bitrate=N/A    frame=   41 fps=8.5 q=24.8 size=N/A time=00:00:00.82 bitrate=N/A    frame=   46 fps=8.6 q=24.8 size=N/A time=00:00:00.92 bitrate=N/A    frame=   51 fps=8.7 q=24.8 size=N/A time=00:00:01.02 bitrate=N/A    frame=   56 fps=8.8 q=24.8 size=N/A time=00:00:01.12 bitrate=N/A    frame=   61 fps=8.8 q=24.8 size=N/A time=00:00:01.22 bitrate=N/A    frame=   66 fps=8.9 q=24.8 size=N/A time=00:00:01.32 bitrate=N/A    frame=   71 fps=8.9 q=24.8 size=N/A time=00:00:01.42 bitrate=N/A    frame=   76 fps=8.9 q=24.8 size=N/A time=00:00:01.52 bitrate=N/A    frame=   81 fps=9.0 q=24.8 size=N/A time=00:00:01.62 bitrate=N/A    frame=   86 fps=9.0 q=24.8 size=N/A time=00:00:01.72 bitrate=N/A    frame=   91 fps=9.0 q=24.8 size=N/A time=00:00:01.82 bitrate=N/A    frame=   96 fps=9.1 q=24.8 size=N/A time=00:00:01.92 bitrate=N/A    frame=  101 fps=9.1 q=24.8 size=N/A time=00:00:02.02 bitrate=N/A    frame=  106 fps=9.1 q=24.8 size=N/A time=00:00:02.12 bitrate=N/A    frame=  111 fps=9.1 q=24.8 size=N/A time=00:00:02.22 bitrate=N/A    frame=  116 fps=9.1 q=24.8 size=N/A time=00:00:02.32 bitrate=N/A    frame=  121 fps=9.2 q=24.8 size=N/A time=00:00:02.42 bitrate=N/A    frame=  126 fps=9.2 q=24.8 size=N/A time=00:00:02.52 bitrate=N/A    frame=  131 fps=9.2 q=24.8 size=N/A time=00:00:02.62 bitrate=N/A    frame=  136 fps=9.2 q=24.8 size=N/A time=00:00:02.72 bitrate=N/A    frame=  141 fps=9.2 q=24.8 size=N/A time=00:00:02.82 bitrate=N/A    frame=  146 fps=9.2 q=24.8 size=N/A time=00:00:02.92 bitrate=N/A    frame=  151 fps=9.2 q=24.8 size=N/A time=00:00:03.02 bitrate=N/A    frame=  156 fps=9.2 q=24.8 size=N/A time=00:00:03.12 bitrate=N/A    frame=  161 fps=9.3 q=24.8 size=N/A time=00:00:03.22 bitrate=N/A    frame=  166 fps=9.3 q=24.8 size=N/A time=00:00:03.32 bitrate=N/A    frame=  171 fps=9.3 q=24.8 size=N/A time=00:00:03.42 bitrate=N/A    frame=  176 fps=9.3 q=24.8 size=N/A time=00:00:03.52 bitrate=N/A    frame=  181 fps=9.3 q=24.8 size=N/A time=00:00:03.62 bitrate=N/A    frame=  186 fps=9.3 q=24.8 size=N/A time=00:00:03.72 bitrate=N/A    frame=  191 fps=9.3 q=24.8 size=N/A time=00:00:03.82 bitrate=N/A    frame=  196 fps=9.3 q=24.8 size=N/A time=00:00:03.92 bitrate=N/A    frame=  201 fps=9.3 q=24.8 size=N/A time=00:00:04.02 bitrate=N/A    frame=  206 fps=9.3 q=24.8 size=N/A time=00:00:04.12 bitrate=N/A    frame=  211 fps=9.3 q=24.8 size=N/A time=00:00:04.22 bitrate=N/A    frame=  216 fps=9.3 q=24.8 size=N/A time=00:00:04.32 bitrate=N/A    frame=  221 fps=9.3 q=24.8 size=N/A time=00:00:04.42 bitrate=N/A    frame=  226 fps=9.3 q=24.8 size=N/A time=00:00:04.52 bitrate=N/A    frame=  231 fps=9.3 q=24.8 size=N/A time=00:00:04.62 bitrate=N/A    frame=  236 fps=9.3 q=24.8 size=N/A time=00:00:04.72 bitrate=N/A    frame=  241 fps=9.4 q=24.8 size=N/A time=00:00:04.82 bitrate=N/A    frame=  246 fps=9.4 q=24.8 size=N/A time=00:00:04.92 bitrate=N/A    frame=  251 fps=9.4 q=24.8 size=N/A time=00:00:05.02 bitrate=N/A    frame=  256 fps=9.4 q=24.8 size=N/A time=00:00:05.12 bitrate=N/A    frame=  261 fps=9.4 q=24.8 size=N/A time=00:00:05.22 bitrate=N/A    frame=  266 fps=9.4 q=24.8 size=N/A time=00:00:05.32 bitrate=N/A    frame=  271 fps=9.4 q=24.8 size=N/A time=00:00:05.42 bitrate=N/A    frame=  276 fps=9.4 q=24.8 size=N/A time=00:00:05.52 bitrate=N/A    frame=  281 fps=9.4 q=24.8 size=N/A time=00:00:05.62 bitrate=N/A    frame=  286 fps=9.4 q=24.8 size=N/A time=00:00:05.72 bitrate=N/A    frame=  291 fps=9.4 q=24.8 size=N/A time=00:00:05.82 bitrate=N/A    frame=  296 fps=9.4 q=24.8 size=N/A time=00:00:05.92 bitrate=N/A    frame=  301 fps=9.4 q=24.8 size=N/A time=00:00:06.02 bitrate=N/A    frame=  306 fps=9.4 q=24.8 size=N/A time=00:00:06.12 bitrate=N/A    frame=  311 fps=9.4 q=24.8 size=N/A time=00:00:06.22 bitrate=N/A    frame=  316 fps=9.4 q=24.8 size=N/A time=00:00:06.32 bitrate=N/A    frame=  321 fps=9.4 q=24.8 size=N/A time=00:00:06.42 bitrate=N/A    frame=  326 fps=9.4 q=24.8 size=N/A time=00:00:06.52 bitrate=N/A    frame=  331 fps=9.4 q=24.8 size=N/A time=00:00:06.62 bitrate=N/A    frame=  336 fps=9.4 q=24.8 size=N/A time=00:00:06.72 bitrate=N/A    frame=  341 fps=9.4 q=24.8 size=N/A time=00:00:06.82 bitrate=N/A    frame=  346 fps=9.4 q=24.8 size=N/A time=00:00:06.92 bitrate=N/A    frame=  351 fps=9.4 q=24.8 size=N/A time=00:00:07.02 bitrate=N/A    frame=  356 fps=9.4 q=24.8 size=N/A time=00:00:07.12 bitrate=N/A    frame=  361 fps=9.4 q=24.8 size=N/A time=00:00:07.22 bitrate=N/A    frame=  366 fps=9.4 q=24.8 size=N/A time=00:00:07.32 bitrate=N/A    frame=  371 fps=9.4 q=24.8 size=N/A time=00:00:07.42 bitrate=N/A    frame=  376 fps=9.4 q=24.8 size=N/A time=00:00:07.52 bitrate=N/A    frame=  381 fps=9.4 q=24.8 size=N/A time=00:00:07.62 bitrate=N/A    frame=  386 fps=9.4 q=24.8 size=N/A time=00:00:07.72 bitrate=N/A    frame=  391 fps=9.4 q=24.8 size=N/A time=00:00:07.82 bitrate=N/A    frame=  396 fps=9.4 q=24.8 size=N/A time=00:00:07.92 bitrate=N/A    frame=  401 fps=9.4 q=24.8 size=N/A time=00:00:08.02 bitrate=N/A    frame=  406 fps=9.4 q=24.8 size=N/A time=00:00:08.12 bitrate=N/A    frame=  411 fps=9.4 q=24.8 size=N/A time=00:00:08.22 bitrate=N/A    frame=  416 fps=9.4 q=24.8 size=N/A time=00:00:08.32 bitrate=N/A    frame=  421 fps=9.4 q=24.8 size=N/A time=00:00:08.42 bitrate=N/A    frame=  426 fps=9.4 q=24.8 size=N/A time=00:00:08.52 bitrate=N/A    frame=  431 fps=9.5 q=24.8 size=N/A time=00:00:08.62 bitrate=N/A    frame=  436 fps=9.5 q=24.8 size=N/A time=00:00:08.72 bitrate=N/A    frame=  441 fps=9.5 q=24.8 size=N/A time=00:00:08.82 bitrate=N/A    frame=  446 fps=9.5 q=24.8 size=N/A time=00:00:08.92 bitrate=N/A    frame=  451 fps=9.5 q=24.8 size=N/A time=00:00:09.02 bitrate=N/A    frame=  456 fps=9.5 q=24.8 size=N/A time=00:00:09.12 bitrate=N/A    frame=  461 fps=9.5 q=24.8 size=N/A time=00:00:09.22 bitrate=N/A    frame=  466 fps=9.5 q=24.8 size=N/A time=00:00:09.32 bitrate=N/A    frame=  471 fps=9.5 q=24.8 size=N/A time=00:00:09.42 bitrate=N/A    frame=  476 fps=9.5 q=24.8 size=N/A time=00:00:09.52 bitrate=N/A    frame=  481 fps=9.5 q=24.8 size=N/A time=00:00:09.62 bitrate=N/A    frame=  486 fps=9.5 q=24.8 size=N/A time=00:00:09.72 bitrate=N/A    frame=  491 fps=9.5 q=24.8 size=N/A time=00:00:09.82 bitrate=N/A    frame=  496 fps=9.5 q=24.8 size=N/A time=00:00:09.92 bitrate=N/A    frame=  501 fps=9.5 q=24.8 size=N/A time=00:00:10.02 bitrate=N/A    frame=  506 fps=9.5 q=24.8 size=N/A time=00:00:10.12 bitrate=N/A    frame=  509 fps=9.5 q=24.8 Lsize=N/A time=00:00:10.18 bitrate=N/A    
video:326734kB audio:0kB subtitle:0kB other streams:0kB global headers:0kB muxing overhead: unknown
+ turkic load DJI_0696_ragott_szakaszok_Vaskut_20180616_napos_napraforgo_T3 /home/horvathandras/vatic/vatic/videos/DJI_0696_ragott_szakaszok_Vaskut_20180616_napos_napraforgo_T3 $'Pozit\303\255vROI' $'Negat\303\255vROI' $'T\303\272r\303\241s' '~Friss' '~1-2Hetes' '~Régebbi' '~Egyéb1' '~Egyéb2' '~Egyéb3' $'R\303\241g\303\241s' '~Friss' '~1-2Hetes' '~Régebbi' '~Egyéb1' '~Egyéb2' '~Egyéb3' $'T\303\266r\303\251s' '~Friss' '~1-2Hetes' '~Régebbi' '~Egyéb1' '~Egyéb2' '~Egyéb3' $'Tapos\303\241s' '~Friss' '~1-2Hetes' '~Régebbi' '~Egyéb1' '~Egyéb2' '~Egyéb3' $'Eg\303\251szs\303\251gesN\303\266v\303\251ny' $'Egy\303\251b1' $'Egy\303\251b2' $'Egy\303\251b3' $'Egy\303\251b4' $'Egy\303\251b5' Bizonytalan $'M\305\261vel\305\221\303\272t' $'Gktapos\303\241s' $'Vet\305\221hiba' $'Sz\303\251ld\303\266nt\303\251s' $'J\303\251gk\303\241r' $'Belv\303\255z' $'Asz\303\241ly' $'Er\303\263zi\303\263' $'Egyszik\305\261Gyom' $'K\303\251tszik\305\261Gyom' $'Egy\303\251bN\303\266vv\303\251delmiPR' --offline --title '$filenameNoDot Video' --length 1000 --description 'vatic annotation'
+ turkic publish --offline
+ mkdir /home/horvathandras/vatic/vatic/public/videothumbnails/DJI_0696_ragott_szakaszok_Vaskut_20180616_napos_napraforgo_T3
+ cp /home/horvathandras/vatic/vatic/videos/DJI_0696_ragott_szakaszok_Vaskut_20180616_napos_napraforgo_T3/0/0/31.jpg /home/horvathandras/vatic/vatic/public/videothumbnails/DJI_0696_ragott_szakaszok_Vaskut_20180616_napos_napraforgo_T3/thumb.jpg
